:SAMPLES-PER-SECOND 24
:FULLY-SPECIFIED
:DEGREES
179
root  -0.172514 40.8339 62.7531 170.315 64.9963 171.563
RightUpLeg  3.28258 -15.4224 -18.575
RightLeg  19.7168 6.70118 2.46787
RightFoot  3.08264 -2.08453 16.6212
RightToes  -1.74623e-010 0 -2.59999e-017
Spine  2.77299 0.797955 2.08178
Spine1  15.2203 1.28549 -1.82106
HEad  -27.2415 48.868 -35.8546
LeftShoulder1  1.44093 -1.95854 -19.9051
LeftArm  3.95291 24.864 -46.9337
LeftForeArm  131.721 -79.8829 -114.032
LeftHand  -0.0635759 3.805 1.79173
RightShoulder  2.99794 5.20531 28.4842
RightArm  0.768426 -25.0319 44.3779
RightForeArm  130.966 75.6968 134.804
RightHand  0.0465883 -6.40215 -13.3168
LeftUpLeg  -3.57808 21.383 7.20775
LeftLeg  23.8547 -7.29903 -3.21037
LeftFoot  6.83825 2.37355 -15.0539
LeftToes  -6.27559e-011 -2.10356e-011 8.24929e-012
180
root  -0.105016 41.3997 62.4208 170.866 64.1121 170.908
RightUpLeg  3.50214 -12.8928 -18.3338
RightLeg  16.0193 4.13319 1.31041
RightFoot  6.45958 -2.24936 14.5512
RightToes  -1.74623e-010 0 -2.59999e-017
Spine  2.79384 -0.036563 0.430021
Spine1  14.1799 -0.0623556 0.101989
HEad  -28.0109 50.2435 -35.788
LeftShoulder1  1.26918 -1.47988 -18.9166
LeftArm  2.55765 25.0832 -44.4531
LeftForeArm  149.624 -77.4869 -132.661
LeftHand  0.107262 2.63507 -5.18387
RightShoulder  2.96194 5.23628 27.9325
RightArm  2.09307 -28.835 42.065
RightForeArm  143.04 73.3499 143.424
RightHand  0.0630903 -3.78098 2.85915
LeftUpLeg  -5.74447 24.0149 7.78488
LeftLeg  24.6849 -9.90475 -4.60523
LeftFoot  8.9751 3.17026 -17.9421
LeftToes  -6.27559e-011 -2.10356e-011 8.24929e-012
181
root  -0.155865 41.4455 62.2302 171.434 62.5816 169.694
RightUpLeg  2.98904 -10.1048 -18.8691
RightLeg  13.5732 1.88755 0.378473
RightFoot  6.36949 -2.40986 15.6469
RightToes  -1.74623e-010 0 -2.59999e-017
Spine  2.48276 -0.447769 -1.70044
Spine1  14.334 -1.02094 1.59344
HEad  -31.0764 49.3069 -37.4365
LeftShoulder1  1.19298 -1.3737 -17.8365
LeftArm  1.735 20.8358 -41.7219
LeftForeArm  151.516 -77.7065 -132.34
LeftHand  -0.0875842 3.33982 3.98628
RightShoulder  2.75645 5.01037 26.3591
RightArm  1.59314 -30.4657 40.335
RightForeArm  153.025 71.9304 147.937
RightHand  0.0701443 -0.4734 2.09725
LeftUpLeg  -9.75586 26.1805 7.5714
LeftLeg  24.8321 -7.75043 -3.56145
LeftFoot  6.4968 2.50181 -16.0654
LeftToes  -6.27559e-011 -2.10356e-011 8.24929e-012
182
root  -0.308457 40.914 62.1086 172.135 60.6862 168.958
RightUpLeg  3.44093 -11.4719 -20.6416
RightLeg  11.7542 2.27438 0.707372
RightFoot  4.18344 -2.51075 18.4837
RightToes  -1.74623e-010 0 -2.59999e-017
Spine  4.28341 -0.929991 -2.70811
Spine1  12.7525 -1.69772 1.6874
HEad  -33.2652 48.0197 -38.5788
LeftShoulder1  1.20725 -1.48003 -17.5804
LeftArm  0.678921 14.2059 -36.7913
LeftForeArm  120.218 -80.224 -105.724
LeftHand  -0.066348 4.94317 13.8056
RightShoulder  2.63856 4.83788 25.5871
RightArm  -1.68601 -30.0795 37.6533
RightForeArm  145.399 73.1604 144.262
RightHand  -0.0976368 -1.71863 -2.83375
LeftUpLeg  -14.1852 30.5105 6.92095
LeftLeg  21.3932 -5.6048 -2.08614
LeftFoot  6.86268 1.99315 -12.6616
LeftToes  -6.27559e-011 -2.10356e-011 8.24929e-012
183
root  -0.575224 39.7774 61.9714 174.063 58.6517 170.136
RightUpLeg  3.84731 -16.7236 -21.8018
RightLeg  13.1724 3.91058 1.93047
RightFoot  -3.43236 -1.32181 18.4899
RightToes  -1.74623e-010 0 -2.59999e-017
Spine  8.23769 -1.71489 -2.24122
Spine1  9.10915 -2.54741 1.718
HEad  -35.0605 47.1498 -39.0616
LeftShoulder1  1.28949 -1.74554 -17.9488
LeftArm  -3.22023 9.18847 -31.7368
LeftForeArm  68.1752 -78.6197 -57.2647
LeftHand  -0.201249 4.00791 16.0408
RightShoulder  2.68768 4.90228 25.9445
RightArm  -5.84943 -26.4866 33.8026
RightForeArm  117.717 77.8784 121.618
RightHand  -0.142624 -2.53132 -5.00738
LeftUpLeg  -19.6781 36.435 5.67984
LeftLeg  16.8502 -3.27587 -1.45032
LeftFoot  8.77992 1.8091 -10.4628
LeftToes  -6.27559e-011 -2.10356e-011 8.24929e-012
184
root  -0.919061 38.5002 61.6996 177.833 57.3546 173.261
RightUpLeg  1.17089 -24.1547 -21.4345
RightLeg  19.5734 7.39769 2.8966
RightFoot  -12.778 0.128618 17.1532
RightToes  -1.74623e-010 0 -2.59999e-017
Spine  9.74696 -2.09112 -0.734608
Spine1  9.0853 -2.87196 1.60335
HEad  -39.1358 44.7636 -41.0246
LeftShoulder1  1.51188 -2.41084 -19.0239
LeftArm  -7.19381 6.78558 -27.872
LeftForeArm  39.4589 -71.6253 -31.1008
LeftHand  -0.197534 4.26666 20.3584
RightShoulder  2.66812 4.88688 25.7606
RightArm  -8.32956 -14.2445 31.1614
RightForeArm  39.2414 74.3529 44.2371
RightHand  -0.130233 -4.25197 -12.6355
LeftUpLeg  -27.7073 42.8747 3.19224
LeftLeg  14.6857 5.84348 -1.2022
LeftFoot  12.3062 1.49888 -7.54194
LeftToes  -6.27559e-011 -2.10356e-011 8.24929e-012
185
root  -1.11496 37.5106 61.0052 -177.627 57.6922 178.479
RightUpLeg  -1.40744 -27.0594 -20.6302
RightLeg  26.1745 9.79448 4.99983
RightFoot  -16.3535 0.612685 16.4112
RightToes  -1.74623e-010 0 -2.59999e-017
Spine  8.34716 -1.21621 2.27663
Spine1  13.2314 -1.58188 0.55959
HEad  -41.7068 42.0236 -42.2166
LeftShoulder1  1.73183 -2.93757 -20.4555
LeftArm  -5.76949 7.20652 -26.3001
LeftForeArm  23.5376 -62.1915 -19.5333
LeftHand  0.122991 5.97756 24.5798
RightShoulder  2.64098 4.94188 25.2114
RightArm  -9.07836 6.70703 31.7353
RightForeArm  7.72229 55.0502 15.8882
RightHand  1.12022 -10.5898 -24.0068
LeftUpLeg  -34.8047 51.0804 0.25513
LeftLeg  14.3916 20.2949 -0.865427
LeftFoot  16.4293 -0.0912634 -0.152945
LeftToes  -6.27559e-011 -2.10356e-011 8.24929e-012
186
root  -0.849554 36.9953 59.6413 -173.952 57.4693 -175.027
RightUpLeg  3.42362 -28.3471 -21.4073
RightLeg  25.8556 13.4044 6.77345
RightFoot  -15.7367 0.593408 18.1245
RightToes  -1.74623e-010 0 -2.59999e-017
Spine  6.9944 1.08529 5.97489
Spine1  15.2585 1.03029 0.338627
HEad  -35.6681 40.765 -36.3257
LeftShoulder1  1.88717 -3.13336 -22.1058
LeftArm  0.609245 12.8141 -27.1621
LeftForeArm  14.8475 -52.888 -13.7139
LeftHand  -0.0430734 5.18921 21.294
RightShoulder  2.83831 5.35723 26.0018
RightArm  -11.3147 26.9252 36.1104
RightForeArm  3.82764 49.0785 12.6934
RightHand  1.65693 -11.3732 -31.2682
LeftUpLeg  -42.3304 60.7301 -6.49825
LeftLeg  15.8793 24.8985 0.966171
LeftFoot  14.5428 -2.25558 9.40211
LeftToes  -6.27559e-011 -2.10356e-011 8.24929e-012
187
root  -0.158129 36.8936 57.661 -173.531 52.7642 -171.881
RightUpLeg  13.5807 -27.6464 -23.9618
RightLeg  19.768 12.3465 4.75906
RightFoot  -13.1813 0.298005 25.7146
RightToes  -1.74623e-010 0 -2.59999e-017
Spine  4.86094 4.54497 7.94813
Spine1  13.7598 4.47373 0.908261
HEad  -21.3073 34.9886 -21.7052
LeftShoulder1  2.06867 -3.4597 -23.4564
LeftArm  4.88757 22.2343 -27.587
LeftForeArm  12.1236 -47.6651 -11.4111
LeftHand  -0.230583 3.92041 17.5191
RightShoulder  2.72129 5.17008 25.2912
RightArm  -10.7395 41.445 46.6104
RightForeArm  15.7587 60.2923 18.8397
RightHand  0.63289 -7.74482 -30.3432
LeftUpLeg  -53.6694 63.676 -18.9974
LeftLeg  20.919 16.8194 7.31875
LeftFoot  6.78193 -2.55441 15.5894
LeftToes  -6.27559e-011 -2.10356e-011 8.24929e-012
188
root  0.569177 37.0238 55.0904 -175.587 42.9438 -172.013
RightUpLeg  20.0845 -22.5965 -24.4997
RightLeg  19.7504 2.73228 0.652099
RightFoot  -1.87848 -2.8148 32.2596
RightToes  -1.74623e-010 0 -2.59999e-017
Spine  1.90534 8.48524 10.4097
Spine1  11.1724 9.13393 -1.81527
HEad  -8.55564 19.0949 -6.54877
LeftShoulder1  2.15582 -3.85565 -23.0327
LeftArm  4.71877 28.4622 -24.0381
LeftForeArm  12.883 -47.6018 -11.3377
LeftHand  -0.27491 3.79632 19.3598
RightShoulder  1.8236 3.55516 19.2356
RightArm  -5.23197 51.8179 58.6639
RightForeArm  37.7996 72.1461 32.822
RightHand  -0.119471 -4.85088 -25.6719
LeftUpLeg  -38.5033 47.5312 -3.51718
LeftLeg  29.0222 22.34 13.2141
LeftFoot  -0.143998 -1.67855 16.9081
LeftToes  -6.27559e-011 -2.10356e-011 8.24929e-012
189
root  0.987061 37.3162 52.5932 -178.637 31.0719 -171.947
RightUpLeg  18.7552 -18.6401 -23.1802
RightLeg  34.3688 1.84263 1.02262
RightFoot  19.3966 -7.33954 27.1378
RightToes  -1.74623e-010 0 -2.59999e-017
Spine  1.54959 11.9536 13.8099
Spine1  9.08032 13.7613 -8.32147
HEad  -1.59434 -1.38316 4.12302
LeftShoulder1  1.94938 -3.58281 -21.1225
LeftArm  1.15026 27.6989 -17.735
LeftForeArm  16.2105 -51.6181 -12.9198
LeftHand  -0.294622 3.78934 21.0692
RightShoulder  1.24473 2.40359 14.289
RightArm  -3.58279 54.2284 58.4714
RightForeArm  76.595 79.352 64.2405
RightHand  -0.827836 -1.6424 -25.5854
LeftUpLeg  -31.566 34.7832 0.624141
LeftLeg  32.7466 21.6088 14.6251
LeftFoot  -2.87766 -1.1701 15.9382
LeftToes  -6.27559e-011 -2.10356e-011 8.24929e-012
